<svg xmlns="http://www.w3.org/2000/svg" width="288.638" height="203.253" viewBox="0 0 288.638 203.253">
  <g id="llave" transform="translate(-13026.395 -2940.796) rotate(2)">
    <path id="Unión_26" data-name="Unión 26" d="M14.1,173.344C5.009,166.114,0,156.627,0,146.626c0-12.375,1.8-21.959,5.358-28.489a20.876,20.876,0,0,1,7.431-8.086A22.322,22.322,0,0,1,24.51,107.11a43.442,43.442,0,0,1,15.332,3.1,56.385,56.385,0,0,1,14.845,8.549,49.552,49.552,0,0,1,7.037,6.883l135.668-72.27s1.842-6.81-3.312-6.81h-5.158s-5.89,6.259-8.836,6.81-4.051-3.128-4.051-3.128-14.362-22.463-14.362-25.042,8.836-7,8.836-7l3.684,1.472,8.471,15.1s4.693,1.381,6.259,0,0-5.524,0-5.524-8.836-12.152-8.836-13.993,6.259-6.63,8.836-5.893,7.2,14.362,10.228,15.834,7.45-.368,7.817-1.84-7.817-19.518-7.817-19.518S208.813-.939,209.916.166s14.36,29.092,14.36,29.092L206.969,39.2l5.524,7.366s11.046-5.891,14.73-5.524,9.573,9.206,9.208,12.333c-.34,2.892-145.263,76-167.11,87a28.146,28.146,0,0,1,.707,6.251c0,11.688-2.182,20.832-6.483,27.179a21.97,21.97,0,0,1-8.48,7.523,26.922,26.922,0,0,1-12.005,2.542C33.218,183.869,22.392,179.933,14.1,173.344Zm1.862-43.79c-2.193,4.156-3.3,10.072-3.3,17.583,0,13.867,14.108,24.23,26.723,24.23,6.007,0,10.8-2.461,13.858-7.119,2.7-4.119,4.076-9.876,4.076-17.111,0-6.414-3.4-12.987-9.338-18.033-5.509-4.684-12.509-7.48-18.727-7.48A14.219,14.219,0,0,0,15.965,129.554Z" transform="translate(13128.895 2494.333)" fill="#fab151" stroke="#1c1c1c" stroke-width="2"/>
    <g id="Grupo_112" data-name="Grupo 112" transform="translate(13239.012 2518.803)">
      <g id="Rectángulo_126" data-name="Rectángulo 126" transform="translate(14.988 16.197)" fill="#fab151" stroke="#1c1c1c" stroke-width="2">
        <rect width="18" height="16" stroke="none"/>
        <rect x="1" y="1" width="16" height="14" fill="none"/>
      </g>
      <path id="Trazado_708" data-name="Trazado 708" d="M13159.649,2522.26c-.645,3.314,0,16.572,0,16.572" transform="translate(-13135.806 -2522.26)" fill="none" stroke="#1c1c1c" stroke-width="2"/>
      <path id="Trazado_709" data-name="Trazado 709" d="M13148,2534h14.363" transform="translate(-13148.002 -2509.656)" fill="none" stroke="#1c1c1c" stroke-width="2"/>
      <path id="Trazado_710" data-name="Trazado 710" d="M13159.362,2550.155v-12.622" transform="translate(-13135.805 -2505.864)" fill="none" stroke="#1c1c1c" stroke-width="2"/>
      <path id="Trazado_711" data-name="Trazado 711" d="M13164,2534.714h11.752l-11.752-.2" transform="translate(-13130.827 -2509.104)" fill="none" stroke="#1c1c1c" stroke-width="2"/>
      <path id="Trazado_712" data-name="Trazado 712" d="M13153.508,2528.475l4.051,4.419" transform="translate(-13142.092 -2515.587)" fill="none" stroke="#1c1c1c" stroke-width="2"/>
      <path id="Trazado_713" data-name="Trazado 713" d="M13164.971,2529.541l-1.873,3.314" transform="translate(-13131.797 -2514.443)" fill="none" stroke="#1c1c1c" stroke-width="2"/>
      <path id="Trazado_714" data-name="Trazado 714" d="M13154.484,2541.038l2.762-3.683" transform="translate(-13141.043 -2506.054)" fill="none" stroke="#1c1c1c" stroke-width="2"/>
      <path id="Trazado_715" data-name="Trazado 715" d="M13163.1,2541.229v-4.051" transform="translate(-13131.796 -2506.245)" fill="none" stroke="#1c1c1c" stroke-width="2"/>
    </g>
    <g id="Grupo_113" data-name="Grupo 113" transform="translate(13365.496 2475.26)">
      <g id="Rectángulo_126-2" data-name="Rectángulo 126" transform="translate(14.504 15.74)" fill="#fab151" stroke="#1c1c1c" stroke-width="2">
        <rect width="19" height="17" stroke="none"/>
        <rect x="1" y="1" width="17" height="15" fill="none"/>
      </g>
      <path id="Trazado_708-2" data-name="Trazado 708" d="M13159.649,2522.26c-.645,3.314,0,16.572,0,16.572" transform="translate(-13135.806 -2522.26)" fill="none" stroke="#1c1c1c" stroke-width="2"/>
      <path id="Trazado_709-2" data-name="Trazado 709" d="M13148,2534h14.363" transform="translate(-13148.002 -2509.656)" fill="none" stroke="#1c1c1c" stroke-width="2"/>
      <path id="Trazado_710-2" data-name="Trazado 710" d="M13159.362,2550.155v-12.622" transform="translate(-13135.805 -2505.864)" fill="none" stroke="#1c1c1c" stroke-width="2"/>
      <path id="Trazado_711-2" data-name="Trazado 711" d="M13164,2534.714h11.752l-11.752-.2" transform="translate(-13130.827 -2509.104)" fill="none" stroke="#1c1c1c" stroke-width="2"/>
      <path id="Trazado_712-2" data-name="Trazado 712" d="M13153.508,2528.475l4.051,4.419" transform="translate(-13142.092 -2515.587)" fill="none" stroke="#1c1c1c" stroke-width="2"/>
      <path id="Trazado_713-2" data-name="Trazado 713" d="M13164.971,2529.541l-1.873,3.314" transform="translate(-13131.797 -2514.443)" fill="none" stroke="#1c1c1c" stroke-width="2"/>
      <path id="Trazado_714-2" data-name="Trazado 714" d="M13154.484,2541.038l2.762-3.683" transform="translate(-13141.043 -2506.054)" fill="none" stroke="#1c1c1c" stroke-width="2"/>
      <path id="Trazado_715-2" data-name="Trazado 715" d="M13163.1,2541.229v-4.051" transform="translate(-13131.796 -2506.245)" fill="none" stroke="#1c1c1c" stroke-width="2"/>
    </g>
    <g id="Grupo_114" data-name="Grupo 114" transform="translate(13319.879 2576.862)">
      <g id="Rectángulo_126-3" data-name="Rectángulo 126" transform="translate(14.121 16.138)" fill="#fab151" stroke="#1c1c1c" stroke-width="2">
        <rect width="19" height="16" stroke="none"/>
        <rect x="1" y="1" width="17" height="14" fill="none"/>
      </g>
      <path id="Trazado_708-3" data-name="Trazado 708" d="M13159.649,2522.26c-.645,3.314,0,16.572,0,16.572" transform="translate(-13135.806 -2522.26)" fill="none" stroke="#1c1c1c" stroke-width="2"/>
      <path id="Trazado_709-3" data-name="Trazado 709" d="M13148,2534h14.363" transform="translate(-13148.002 -2509.656)" fill="none" stroke="#1c1c1c" stroke-width="2"/>
      <path id="Trazado_710-3" data-name="Trazado 710" d="M13159.362,2550.155v-12.622" transform="translate(-13135.805 -2505.864)" fill="none" stroke="#1c1c1c" stroke-width="2"/>
      <path id="Trazado_711-3" data-name="Trazado 711" d="M13164,2534.714h11.752l-11.752-.2" transform="translate(-13130.827 -2509.104)" fill="none" stroke="#1c1c1c" stroke-width="2"/>
      <path id="Trazado_712-3" data-name="Trazado 712" d="M13153.508,2528.475l4.051,4.419" transform="translate(-13142.092 -2515.587)" fill="none" stroke="#1c1c1c" stroke-width="2"/>
      <path id="Trazado_713-3" data-name="Trazado 713" d="M13164.971,2529.541l-1.873,3.314" transform="translate(-13131.797 -2514.443)" fill="none" stroke="#1c1c1c" stroke-width="2"/>
      <path id="Trazado_714-3" data-name="Trazado 714" d="M13154.484,2541.038l2.762-3.683" transform="translate(-13141.043 -2506.054)" fill="none" stroke="#1c1c1c" stroke-width="2"/>
      <path id="Trazado_715-3" data-name="Trazado 715" d="M13163.1,2541.229v-4.051" transform="translate(-13131.796 -2506.245)" fill="none" stroke="#1c1c1c" stroke-width="2"/>
    </g>
  </g>
</svg>
