<svg xmlns="http://www.w3.org/2000/svg" width="374.495" height="662.674" viewBox="0 0 374.495 662.674">
  <g id="arcoiris" transform="translate(-12839.388 -2246.466)">
    <path id="Trazado_669" data-name="Trazado 669" d="M13092.332,2408.143l-123.219-30.522s-25.621,2.261-27.884,22.232c-6.671-3.275-22.227-6.337-29.015-2.638-11.295,6.1-11.3,25.624-11.3,25.624s-21.194-3.487-30.145,4.521-5.651,27.508-5.651,27.508-21.048,12.125-16.579,30.144c5.272,16.957,22.23,15.073,22.23,15.073s-5.367,21.76,3.015,31.274,29.388,4.523,29.388,4.523,8.825,16.589,19.977,18.462,24.489-3.014,24.489-3.014,12.907,12.812,25.245,12.812,24.113-12.812,24.113-12.812,12.72,17.333,25.629,18.087,25.621-18.087,25.621-18.087,9.512,12.812,21.478,12.812,25.624-15.448,25.624-15.448,16.424,10.281,26.376,5.65,14.181-21.529,14.181-21.529,21.3,8.369,31.792,0,6.4-34.615,6.4-34.615,21.1-3.768,19.217-23.739-22.232-19.594-22.232-19.594,9.986-22.892,3.016-30.522-31.651,2.261-31.651,2.261,12.436-21.1-16.577-29.768S13092.332,2408.143,13092.332,2408.143Z" transform="translate(19.443 336.533)" fill="#f4f4f4" stroke="#41431e" stroke-width="2"/>
    <path id="Trazado_663" data-name="Trazado 663" d="M12840.391,2247.466h239.99v237.84h-239.99Z" transform="translate(-0.003 0)" fill="#fab151" stroke="#41431e" stroke-width="2"/>
    <path id="Trazado_664" data-name="Trazado 664" d="M12840.391,2267.575s154.155,33.143,221.7,187.259,46.276,260.441,46.276,260.441-.485.028-13.943,1.732-15.133,12.686-19.982,13.046a67.254,67.254,0,0,0-10.29-11.491h6.87s12.492-104.537-45.522-243.28-185.1-171.116-185.1-171.116Z" transform="translate(-0.003 51.996)" fill="#fca9fb" stroke="#41431e" stroke-width="2"/>
    <path id="Trazado_665" data-name="Trazado 665" d="M12840.391,2267.575s132.188,33.267,189.309,178.14,41.4,233.452,41.4,233.452l-41.4,5.795s18.277-86.431-39.738-225.175-149.57-149.012-149.57-149.012Z" transform="translate(-0.003 87.852)" fill="#f9f717" stroke="#41431e" stroke-width="2"/>
    <path id="Trazado_666" data-name="Trazado 666" d="M12840.391,2267.575s99.072,18.386,156.2,163.259,31.4,212.586,31.4,212.586l-9.586,12.263s-2.7-11.152-10.037-15.607-18.4-3.109-18.4-3.109,4.968-82.784-26.489-182.126-123.081-144.064-123.081-144.064Z" transform="translate(-0.003 130.88)" fill="#50b7fa" stroke="#41431e" stroke-width="2"/>
    <path id="Trazado_667" data-name="Trazado 667" d="M12875.749,2417.227s.637-21.014,24.2-24.2,26.746,17.83,26.746,17.83,7.643-17.83,33.114-17.83,23.562,17.83,23.562,17.83,5.733-17.83,26.747-17.83,26.107,24.2,26.107,24.2" transform="translate(91.421 375.521)" fill="none" stroke="#41431e" stroke-width="2"/>
    <path id="Trazado_668" data-name="Trazado 668" d="M0,54Z" fill="none" stroke="#41431e" stroke-width="2"/>
    <path id="Trazado_670" data-name="Trazado 670" d="M12876.5,2382.505l4.049,14.135-7.274-10.42" transform="translate(85.023 349.165)" fill="none" stroke="#41431e" stroke-width="2"/>
  </g>
</svg>
