<svg xmlns="http://www.w3.org/2000/svg" width="565.484" height="200" viewBox="0 0 565.484 200">
  <g id="carita" transform="translate(-21.882 -720)">
    <g id="Grupo_118" data-name="Grupo 118" transform="translate(-12437 -1485)">
      <path id="Trazado_716" data-name="Trazado 716" d="M12646.322,2324.853s-58.48,48.106-69.014,49.861-11.146,2.546-20.014,2.107a41.207,41.207,0,0,1-15.446-3.864l6.32-9.831s-14.31,4.565-22.121,4.565a34.329,34.329,0,0,1-12.645-2.107l15.8-11.587s-17.559,5.267-27.394,3.863c-.715-1.276-13.339-6.672-13.339-6.672l16.148-11.237s-16.148,5.268-25.629,2.459-17.558-11.237-17.558-11.237,20.718,1.756,62.147-33.709,82-76.889,101.48-85.325c34.058-14.748,54.077,21.77,54.077,21.77l3.858,45.3Z" transform="translate(-0.001 12.141)" fill="#f4f4f4" stroke="#1c1c1c" stroke-width="2"/>
      <path id="Trazado_717" data-name="Trazado 717" d="M12498.116,2324.853s58.48,48.106,69.014,49.861,11.146,2.546,20.014,2.107a41.207,41.207,0,0,0,15.446-3.864l-6.32-9.831s14.31,4.565,22.121,4.565a34.329,34.329,0,0,0,12.645-2.107l-15.8-11.587s17.559,5.267,27.394,3.863c.715-1.276,13.339-6.672,13.339-6.672l-16.148-11.237s16.148,5.268,25.629,2.459,17.558-11.237,17.558-11.237-20.718,1.756-62.147-33.709-82-76.889-101.48-85.325c-34.058-14.748-54.077,21.77-54.077,21.77l-3.858,45.3Z" transform="translate(338.81 20.828)" fill="#f4f4f4" stroke="#1c1c1c" stroke-width="2"/>
      <g id="Elipse_42" data-name="Elipse 42" transform="translate(12647 2222)" fill="#f9f717" stroke="#1c1c1c" stroke-width="2">
        <ellipse cx="91" cy="91.5" rx="91" ry="91.5" stroke="none"/>
        <ellipse cx="91" cy="91.5" rx="90" ry="90.5" fill="none"/>
      </g>
      <g id="Exclusión_2" data-name="Exclusión 2" transform="translate(12672 2205)" fill="#fab151">
        <path d="M 67 47 C 58.0206184387207 47 49.30511093139648 46.36825561523438 41.0955810546875 45.12231063842773 C 33.18365478515625 43.92152786254883 26.08043670654297 42.20527267456055 19.98325538635254 40.02119827270508 C 13.93847274780273 37.85590744018555 9.206636428833008 35.34872817993164 5.919145584106445 32.56930923461914 C 2.655036449432373 29.80965423583984 1 26.92652702331543 1 24 C 1 21.07347297668457 2.655036449432373 18.19034576416016 5.919145584106445 15.43069076538086 C 9.206636428833008 12.65127277374268 13.93847274780273 10.14409065246582 19.98325538635254 7.978799819946289 C 26.08043670654297 5.794727325439453 33.18365478515625 4.07847261428833 41.0955810546875 2.87769079208374 C 49.30511093139648 1.631745457649231 58.0206184387207 1 67 1 C 75.97940063476563 1 84.69490814208984 1.631745457649231 92.9044189453125 2.87769079208374 C 100.8163604736328 4.07847261428833 107.9195785522461 5.794727325439453 114.0167465209961 7.978799819946289 C 120.0615310668945 10.14409065246582 124.7933807373047 12.65127277374268 128.0808563232422 15.43069076538086 C 131.344970703125 18.19034576416016 133 21.07347297668457 133 24 C 133 26.92652702331543 131.344970703125 29.80965423583984 128.0808563232422 32.56930923461914 C 124.7933807373047 35.34872817993164 120.0615310668945 37.85590744018555 114.0167465209961 40.02119827270508 C 107.9195785522461 42.20527267456055 100.8163604736328 43.92152786254883 92.9044189453125 45.12231063842773 C 84.69490814208984 46.36825561523438 75.97940063476563 47 67 47 Z M 67 12.08983612060547 C 58.26923751831055 12.08983612060547 50.03970718383789 13.01119995117188 43.82736206054688 14.68423652648926 C 39.15325546264648 15.94299983978271 33.58152770996094 18.20283699035645 33.58152770996094 21.82032775878906 C 33.58152770996094 25.43654632568359 39.15332794189453 27.69545364379883 43.82747268676758 28.95367240905762 C 50.0397834777832 30.62592697143555 58.26929092407227 31.54689025878906 67 31.54689025878906 C 75.73172760009766 31.54689025878906 83.96218109130859 30.62592697143555 90.17523956298828 28.95367240905762 C 94.84992980957031 27.69547271728516 100.42236328125 25.43656349182129 100.42236328125 21.82032775878906 C 100.42236328125 18.20281791687012 94.84998321533203 15.9429817199707 90.17534637451172 14.68421840667725 C 83.96227264404297 13.01119995117188 75.73178100585938 12.08983612060547 67 12.08983612060547 Z" stroke="none"/>
        <path d="M 67 46 C 75.92932891845703 46 84.59434509277344 45.37205505371094 92.75437927246094 44.13363647460938 C 100.6026916503906 42.94250869750977 107.6429290771484 41.24214553833008 113.6795272827148 39.07978057861328 C 119.5277633666992 36.98488998413086 124.2844009399414 34.46954727172852 127.4352340698242 31.80565452575684 C 130.4641876220703 29.24480056762695 132 26.61860084533691 132 24 C 132 21.38139915466309 130.4641876220703 18.75519943237305 127.4352340698242 16.19434547424316 C 124.2844009399414 13.53045463562012 119.5277633666992 11.01510906219482 113.6795272827148 8.920218467712402 C 107.6429290771484 6.757854461669922 100.6026916503906 5.057490825653076 92.75437927246094 3.866363525390625 C 84.59434509277344 2.627945423126221 75.92932891845703 2 67 2 C 58.07067108154297 2 49.40565490722656 2.627945423126221 41.24563598632813 3.866363525390625 C 33.39730834960938 5.057490825653076 26.3570728302002 6.757854461669922 20.32047271728516 8.920218467712402 C 14.47223663330078 11.01510906219482 9.71560001373291 13.53045463562012 6.564781665802002 16.19434547424316 C 3.535818099975586 18.75519943237305 2 21.38139915466309 2 24 C 2 26.61860084533691 3.535818099975586 29.24480056762695 6.564781665802002 31.80565452575684 C 9.71560001373291 34.46954727172852 14.47223663330078 36.98488998413086 20.32047271728516 39.07978057861328 C 26.3570728302002 41.24214553833008 33.39730834960938 42.94250869750977 41.24563598632813 44.13363647460938 C 49.40565490722656 45.37205505371094 58.07067108154297 46 67 46 M 67 11.08983612060547 C 75.81709289550781 11.08983612060547 84.13993072509766 12.02341842651367 90.43534851074219 13.71861839294434 C 97.72579956054688 15.6817455291748 101.42236328125 18.40754508972168 101.42236328125 21.82032775878906 C 101.42236328125 25.23212814331055 97.72573089599609 27.95701789855957 90.43514251708984 29.91930961608887 C 84.13974761962891 31.61372756958008 75.81700134277344 32.54689025878906 67 32.54689025878906 C 58.18401718139648 32.54689025878906 49.86220169067383 31.61372756958008 43.56754684448242 29.91929054260254 C 36.27776336669922 27.95698165893555 32.58152770996094 25.23210906982422 32.58152770996094 21.82032775878906 C 32.58152770996094 18.4075813293457 36.27769088745117 15.68178176879883 43.56732559204102 13.71863651275635 C 49.86203765869141 12.02341842651367 58.18392562866211 11.08983612060547 67 11.08983612060547 M 67 48 C 30.05607223510742 48 0 37.23367309570313 0 24 C 0 10.76632690429688 30.05607223510742 0 67 0 C 103.9439468383789 0 134 10.76632690429688 134 24 C 134 37.23367309570313 103.9439468383789 48 67 48 Z M 67 13.08983612060547 C 49.12438201904297 13.08983612060547 34.58152770996094 17.00630950927734 34.58152770996094 21.82032775878906 C 34.58152770996094 26.63214492797852 49.12438201904297 30.54689025878906 67 30.54689025878906 C 84.87772369384766 30.54689025878906 99.42236328125 26.63214492797852 99.42236328125 21.82032775878906 C 99.42236328125 17.00630950927734 84.87772369384766 13.08983612060547 67 13.08983612060547 Z" stroke="none" fill="#1c1c1c"/>
      </g>
      <path id="Trazado_718" data-name="Trazado 718" d="M12512.444,2233.1s10.458,36.79,52,39.164,55.188-35.01,55.188-35.01" transform="translate(170.556 93.965)" fill="none" stroke="#1c1c1c" stroke-width="2"/>
      <path id="Trazado_719" data-name="Trazado 719" d="M12519.363,2241.162s0,25.517,21.362,25.517,19.584-20.769,19.584-20.769" transform="translate(193.679 120.916)" fill="none" stroke="#1c1c1c" stroke-width="2"/>
      <path id="Trazado_720" data-name="Trazado 720" d="M12524.078,2242.144v14.134" transform="translate(209.457 124.197)" fill="none" stroke="#1c1c1c" stroke-width="2"/>
      <path id="Trazado_721" data-name="Trazado 721" d="M12510,2243.595s32.944,7.714,45.408,4.155,11.421-10.385,7.716-17.8-8.081-10.533-21.365-7.121S12510,2243.595,12510,2243.595Z" transform="translate(162.384 54.989)" fill="#f4f4f4" stroke="#1c1c1c" stroke-width="2"/>
      <path id="Trazado_722" data-name="Trazado 722" d="M12510,2243.595s32.944,7.714,45.408,4.155,11.421-10.385,7.716-17.8-8.081-10.533-21.365-7.121S12510,2243.595,12510,2243.595Z" transform="translate(227.54 54.989)" fill="#f4f4f4" stroke="#1c1c1c" stroke-width="2"/>
      <path id="Trazado_723" data-name="Trazado 723" d="M12522.5,2247.59a26.64,26.64,0,0,1-3.512-12.289c0-6.536,3.512-13.856,3.512-13.856a11.591,11.591,0,0,1,8.87,5.048c3.141,4.919,5.8,8.406,3.691,14.63S12522.5,2247.59,12522.5,2247.59Z" transform="translate(192.434 54.989)" fill="#1c1c1c" stroke="#1c1c1c" stroke-width="2"/>
      <path id="Trazado_724" data-name="Trazado 724" d="M12534.46,2246.617s-2.459-7,0-13.414,9.827-11.235,9.827-11.235l3.668,2.432s6.729,10.5,3.357,16.3S12534.46,2246.617,12534.46,2246.617Z" transform="translate(240.521 56.734)" fill="#1c1c1c" stroke="#1c1c1c" stroke-width="2"/>
    </g>
    <path id="Trazado_725" data-name="Trazado 725" d="M13027.937,1701.213l36.287-21.85" transform="translate(-12962 -833)" fill="none" stroke="#1c1c1c" stroke-width="1"/>
    <path id="Trazado_726" data-name="Trazado 726" d="M13052.518,1714.87l13.267-8.194" transform="translate(-12962 -833)" fill="none" stroke="#1c1c1c" stroke-width="1"/>
    <path id="Trazado_727" data-name="Trazado 727" d="M13073.2,1723.454l23.411-16" transform="translate(-12962 -833)" fill="none" stroke="#1c1c1c" stroke-width="1"/>
  </g>
</svg>
