<svg xmlns="http://www.w3.org/2000/svg" width="1279.827" height="837.836" viewBox="0 0 1279.827 837.836">
  <g id="fondo_lsd" transform="translate(1.398 -243.164)">
    <g id="fondo_lsd-2" data-name="fondo_lsd">
      <g id="Grupo_106" data-name="Grupo 106" transform="translate(0.786)">
        <path id="Trazado_694" data-name="Trazado 694" d="M14238.566,1281.021,13486.4,1913h-447.944l1003.17-835.722,173.155,52.822Z" transform="translate(-12962 -833)" fill="#fab151" stroke="#1c1c1c" stroke-width="2"/>
        <path id="Trazado_691" data-name="Trazado 691" d="M13833.216,1096.864,12961.6,1734.623V1913h105.287l935.273-764.821Z" transform="translate(-12962 -833)" fill="#fab151" stroke="#484127" stroke-width="2"/>
        <path id="Trazado_692" data-name="Trazado 692" d="M13750.363,1312.7l-768.408,602.673" transform="translate(-12962 -835.371)" fill="none" stroke="#2a261d" stroke-width="2"/>
        <path id="Trazado_695" data-name="Trazado 695" d="M13986,1295.747,13221.142,1911.6" transform="translate(-12962.397 -835.371)" fill="none" stroke="#1c1c1c" stroke-width="2"/>
        <path id="Trazado_696" data-name="Trazado 696" d="M14042.234,1312.7c-50.8,26.367-790.959,597.023-790.959,597.023" transform="translate(-12962.468 -835.371)" fill="none" stroke="#1c1c1c" stroke-width="2"/>
      </g>
      <path id="Trazado_690" data-name="Trazado 690" d="M13612.864,1082.174l-651.263,492.12v235.042l707.575-543.535Z" transform="translate(-12962 -833)" fill="#fab151" stroke="#1c1d1a" stroke-width="2"/>
    </g>
    <path id="Trazado_693" data-name="Trazado 693" d="M13806.427,1232.538c-3.343,3.343-40.118,34.547-40.118,34.547" transform="translate(-12962 -833)" fill="none" stroke="#1c1c1c" stroke-width="2"/>
  </g>
</svg>
