<svg xmlns="http://www.w3.org/2000/svg" width="413.071" height="201.677" viewBox="0 0 413.071 201.677">
  <g id="planeta" transform="translate(-1444.167 -539.693)">
    <g id="Trazado_698" data-name="Trazado 698" transform="translate(1460.001 544.603)" fill="#f9f717">
      <path d="M 21.37349319458008 195.7681427001953 C 2.783270597457886 195.7681427001953 -8.952451705932617 191.7256317138672 -13.50772953033447 183.7528533935547 C -14.36839580535889 182.2465209960938 -14.81428527832031 180.5262451171875 -14.83300685882568 178.6398620605469 C -14.85167407989502 176.7620239257813 -14.45006275177002 174.6657409667969 -13.63939571380615 172.4092407226563 C -11.98378467559814 167.8009643554688 -8.589396476745605 162.4051971435547 -3.550451755523682 156.3716888427734 C 1.19799280166626 150.6859741210938 7.462992668151855 144.3677978515625 15.0704927444458 137.5925750732422 C 22.19188117980957 131.2503509521484 30.55110359191895 124.4516372680664 39.91599273681641 117.3853607177734 C 48.69843673706055 110.7585220336914 58.37888336181641 103.8847503662109 68.68838500976563 96.95502471923828 C 87.97154998779297 83.99341583251953 108.7820510864258 71.26580047607422 128.8700408935547 60.14802551269531 C 148.1124420166016 49.49824523925781 165.3175506591797 41.1315803527832 177.3160552978516 36.58924865722656 C 195.0033874511719 29.89330291748047 226.6819915771484 19.59391403198242 262.5474853515625 10.76880264282227 C 289.7605895996094 4.072747230529785 328.2906494140625 -3.909308433532715 357.3076171875 -3.909308433532715 C 367.9168701171875 -3.909308433532715 376.5115356445313 -2.826919555664063 382.8529968261719 -0.6923085451126099 C 386.1727294921875 0.4251914918422699 388.9216003417969 1.849302649497986 391.0234375 3.540413618087769 C 393.1656494140625 5.26408052444458 394.6934814453125 7.315580368041992 395.5644836425781 9.638025283813477 C 396.168212890625 11.24763584136963 396.3662109375 13.03791332244873 396.1530456542969 14.95913600921631 C 395.9408264160156 16.8723030090332 395.316650390625 18.96819114685059 394.2978820800781 21.18857955932617 C 389.9053344726563 30.76202392578125 378.1996459960938 42.93063735961914 359.5059814453125 57.35646820068359 C 351.1602783203125 63.79685974121094 341.3913269042969 70.69947052001953 330.4704284667969 77.87246704101563 C 320.3599243164063 84.5133056640625 309.1925354003906 91.43280029296875 297.2785034179688 98.43885803222656 C 275.7302856445313 111.1103057861328 252.1752777099609 123.8242492675781 229.1600494384766 135.2062530517578 C 208.0946655273438 145.6239624023438 189.4347076416016 153.9510803222656 176.6175537109375 158.6535797119141 C 162.1118774414063 163.9756317138672 132.9255981445313 174.1785736083984 100.4334945678711 182.715576171875 C 85.17021179199219 186.7258605957031 71.05221557617188 189.8621978759766 58.47177124023438 192.0374755859375 C 44.15510559082031 194.5129699707031 31.67343711853027 195.7681427001953 21.37349319458008 195.7681427001953 Z" stroke="none"/>
      <path d="M 357.3075866699219 -2.9093017578125 C 328.390869140625 -2.9093017578125 289.94580078125 5.056976318359375 262.7864379882813 11.73985290527344 C 226.9642028808594 20.55435180664063 195.3301391601563 30.83885192871094 177.6700897216797 37.52447509765625 C 165.7149810791016 42.05035400390625 148.5560913085938 50.3956298828125 129.354248046875 61.02297210693359 C 109.2909851074219 72.12708282470703 88.5059814453125 84.83913421630859 69.24624633789063 97.78496551513672 C 58.95181274414063 104.7046356201172 49.28631591796875 111.5676879882813 40.518310546875 118.1836395263672 C 31.1749267578125 125.2336883544922 22.83682250976563 132.0150756835938 15.73553466796875 138.3394165039063 C 8.164642333984375 145.08203125 1.93414306640625 151.3646392822266 -2.782958984375 157.0126953125 C -7.7464599609375 162.9559173583984 -11.08245849609375 168.2498016357422 -12.6982421875 172.7473602294922 C -13.46875 174.8919067382813 -13.85052490234375 176.8710784912109 -13.83306884765625 178.6299133300781 C -13.81585693359375 180.3677978515625 -13.4254150390625 181.8812408447266 -12.63946533203125 183.2568054199219 C -11.52969360351563 185.1992492675781 -9.9415283203125 186.9184112548828 -7.91925048828125 188.3665771484375 C -5.90985107421875 189.8055267333984 -3.416015625 191.0195770263672 -0.50701904296875 191.9751434326172 C 5.135040283203125 193.8284149169922 12.4967041015625 194.7681427001953 21.3734130859375 194.7681427001953 C 31.61642456054688 194.7681427001953 44.04080200195313 193.5178527832031 58.30136108398438 191.0520782470703 C 70.853759765625 188.8816986083984 84.943603515625 185.75146484375 100.1793518066406 181.7484130859375 C 132.6316375732422 173.2219085693359 161.7840270996094 163.0307464599609 176.2730865478516 157.7147979736328 C 189.0576477050781 153.0242462158203 207.6825256347656 144.7121887207031 228.7167510986328 134.3098602294922 C 251.7107543945313 122.9383544921875 275.2437438964844 110.2363052368164 296.7716064453125 97.57685852050781 C 308.6714782714844 90.57913970947266 319.82470703125 83.66841125488281 329.9214782714844 77.03668975830078 C 340.8211975097656 69.87747192382813 350.5693054199219 62.98974609375 358.89501953125 56.56480407714844 C 367.8458251953125 49.65757751464844 375.2734680175781 43.19096374511719 380.9717407226563 37.34457397460938 C 387.006103515625 31.15347290039063 391.1838684082031 25.57746887207031 393.3889770507813 20.77153015136719 C 394.3630981445313 18.64840698242188 394.9587097167969 16.65568542480469 395.1591491699219 14.84886169433594 C 395.3547973632813 13.08529663085938 395.1761474609375 11.45024108886719 394.6282043457031 9.98919677734375 C 393.8209228515625 7.83685302734375 392.3971862792969 5.929306030273438 390.3965454101563 4.31951904296875 C 388.3868713378906 2.702529907226563 385.7415466308594 1.335189819335938 382.533935546875 0.255462646484375 C 376.2955322265625 -1.844528198242188 367.8081359863281 -2.9093017578125 357.3075866699219 -2.9093017578125 M 357.3075866699219 -4.909286499023438 C 377.8510437011719 -4.909286499023438 392.6714782714844 -0.923309326171875 396.5008239746094 9.286865234375 C 410.0484619140625 45.40936279296875 232.8230285644531 139.097412109375 176.9619750976563 159.5924072265625 C 136.9686737060547 174.2656860351563 65.41976928710938 196.7681121826172 21.37344360351563 196.7681121826172 C 3.897613525390625 196.7681121826172 -9.2464599609375 193.2268676757813 -14.37603759765625 184.2489624023438 C -32.4342041015625 152.6430816650391 122.2225341796875 56.37702941894531 176.9619750976563 35.65402221679688 C 216.2291107177734 20.78849792480469 305.1704711914063 -4.909286499023438 357.3075866699219 -4.909286499023438 Z" stroke="none" fill="#1c1c1c"/>
    </g>
    <g id="Trazado_697" data-name="Trazado 697" transform="translate(1554.876 589.439)" fill="none">
      <path d="M84.792,16.262C113.363,5.446,192.306-16.353,199.377,2.5S113.948,70.252,84.792,80.949s-90.44,29.365-99.865,12.869S56.222,27.078,84.792,16.262Z" stroke="none"/>
      <path d="M 178.9205627441406 -2.909286499023438 C 163.9237823486328 -2.909286499023438 143.9394378662109 1.233497619628906 129.8154449462891 4.708869934082031 C 111.1599731445313 9.299247741699219 94.69178009033203 14.65290069580078 85.50059509277344 18.13243103027344 C 79.30231475830078 20.47896575927734 70.39075469970703 24.81412506103516 60.40750122070313 30.33940505981445 C 49.95950317382813 36.12190246582031 39.13546752929688 42.74184036254883 29.10565185546875 49.48362350463867 C 5.214035034179688 65.54286956787109 -10.24124145507813 79.63205718994141 -13.29734802246094 88.13858795166016 C -14.00321960449219 90.10337066650391 -14.01593017578125 91.63668823242188 -13.3363037109375 92.82621765136719 C -12.30439758300781 94.63227844238281 -10.35281372070313 96.0172119140625 -7.535781860351563 96.94252777099609 C -4.6875 97.87815093994141 -0.94561767578125 98.35253143310547 3.585906982421875 98.35253143310547 C 8.87762451171875 98.35253143310547 15.30746459960938 97.70468139648438 22.69683837890625 96.42699432373047 C 29.22152709960938 95.29881286621094 36.54850769042969 93.67093658447266 44.47425842285156 91.58853149414063 C 61.37397003173828 87.14827728271484 76.55718994140625 81.84046936035156 84.10363006591797 79.07174682617188 C 90.74509429931641 76.63502502441406 100.4324417114258 72.3111572265625 111.3810958862305 66.89656066894531 C 123.3621215820313 60.971435546875 135.6236877441406 54.35318374633789 146.8402557373047 47.75727844238281 C 159.8717193603516 40.09412384033203 170.7473449707031 32.91490173339844 179.1649780273438 26.41902923583984 C 183.8011627197266 22.84127807617188 187.6440582275391 19.49627685546875 190.5869445800781 16.47696685791016 C 193.6598815917969 13.32418823242188 195.7783508300781 10.50428009033203 196.8835296630859 8.095619201660156 C 197.7801208496094 6.141464233398438 197.9889373779297 4.495155334472656 197.5040893554688 3.202438354492188 C 197.1386871337891 2.228157043457031 196.5130310058594 1.394058227539063 195.59130859375 0.6524658203125 C 194.6305694580078 -0.1205978393554688 193.3489074707031 -0.7800064086914063 191.7819366455078 -1.307472229003906 C 188.6244049072266 -2.370346069335938 184.2972259521484 -2.909286499023438 178.9205627441406 -2.909286499023438 M 178.9205627441406 -4.9093017578125 C 189.642822265625 -4.9093017578125 197.3780822753906 -2.828880310058594 199.3767242431641 2.5001220703125 C 206.4476928710938 21.35359191894531 113.948127746582 70.25237274169922 84.79250335693359 80.94937133789063 C 63.91873168945313 88.60781097412109 26.5750732421875 100.3525314331055 3.585906982421875 100.3525314331055 C -5.5352783203125 100.3525314331055 -12.39556884765625 98.50424194335938 -15.07284545898438 93.81840515136719 C -24.49800109863281 77.32228088378906 56.22222137451172 27.07796478271484 84.79250335693359 16.26199340820313 C 105.2872619628906 8.503181457519531 151.7085723876953 -4.9093017578125 178.9205627441406 -4.9093017578125 Z" stroke="none" fill="#1c1c1c"/>
    </g>
    <g id="Elipse_41" data-name="Elipse 41" transform="translate(1578 558)" fill="#fca9fb" stroke="#1c1c1c" stroke-width="2">
      <ellipse cx="77" cy="77.5" rx="77" ry="77.5" stroke="none"/>
      <ellipse cx="77" cy="77.5" rx="76" ry="76.5" fill="none"/>
    </g>
    <path id="Trazado_702" data-name="Trazado 702" d="M13518.712,2194.119s38.546-7.785,73.916-23.685,63.849-39.345,63.849-39.345" transform="translate(-11926.517 -1510.501)" fill="none" stroke="#1c1c1c" stroke-width="2"/>
    <path id="Trazado_703" data-name="Trazado 703" d="M13524.914,2190.328s27.944-6.361,54.325-18.309a259.2,259.2,0,0,0,47.723-28.814" transform="translate(-11898.803 -1483.599)" fill="none" stroke="#1c1c1c" stroke-width="2"/>
    <path id="Trazado_704" data-name="Trazado 704" d="M13538.386,2191.389s49.224-13.206,72.935-24.011,62.729-39.019,62.729-39.019l13.807,26.713s-42.02,27.913-63.33,39.019-66.331,20.71-66.331,20.71Z" transform="translate(-11942.589 -1506.87)" fill="#f9f717" stroke="#f9f717" stroke-width="1"/>
    <path id="Trazado_701" data-name="Trazado 701" d="M13531.944,2125.854s19.537,4.835,33.266,17.022,15.477,27.077,15.477,27.077,8.514-7.93,6.188-20.116-5.375-15.685-10.551-19.688-12.6-7.063-24.006-7.063A76.439,76.439,0,0,0,13531.944,2125.854Z" transform="translate(-11890.991 -1542.689)" fill="none" stroke="#1c1c1c" stroke-width="1"/>
  </g>
</svg>
