<svg xmlns="http://www.w3.org/2000/svg" width="541.828" height="525.582" viewBox="0 0 541.828 525.582">
  <g id="trueno" transform="translate(-13593.153 -1970.908)">
    <path id="Trazado_655" data-name="Trazado 655" d="M14014.982,2213.908v523.539s-143.5-5.956-128.48-179.026c-47.641,8.719-64.213-12.741-83.85-30.977-35.072-29.46-36.533-82.92-32.074-102.518-140.125,31.551-117.207-118.6-121.537-116.193-144.242,29.381-173.623-94.825-173.623-94.825Z" transform="translate(118.999 -242)" fill="#4cadf7" stroke="#323318" stroke-width="2"/>
    <path id="Trazado_657" data-name="Trazado 657" d="M13563.167,2248.758c-3.162,19.142,19.753,72.7,66.383,26.869,12.915-12.7-9.474,20.689,30.818,32.4,22.227,2.349,36.035-10.748,43.464-18.176,37.934,61.641,76.658,7.112,76.658,7.112" transform="translate(330.908 -157.564)" fill="none" stroke="#323318" stroke-width="2"/>
    <path id="Trazado_659" data-name="Trazado 659" d="M13674.772,2267.235s9.822,8.514,20.795,10.315c6.99,1.147,27.339-5.895,42.243-15.882-.67.123,3.066,5.634,3.436,5.567,3.275,4.257,1.639,4.42,1.639,4.42l-75.745,106.311,49.236-5.471-82.674,97.873,46.2-3.648-130.7,110.639,51.672-82.067-40.73,5.472,73.558-100.3-58.359,11.551Z" transform="translate(297.769 -126.283)" fill="#f1f400" stroke="#323318" stroke-width="2"/>
  </g>
</svg>
